<svg id="bell-notification.1" xmlns="http://www.w3.org/2000/svg" width="24" height="24" viewBox="0 0 24 24">
  <g id="Group_539" data-name="Group 539">
    <path id="Path_131" data-name="Path 131" d="M17.5,17.359h0a1.9,1.9,0,0,0,1.9-1.894h0a2.005,2.005,0,0,0-.591-1.419l-1.259-1.26V9.043h0A5.544,5.544,0,0,0,12.006,3.5h0A5.544,5.544,0,0,0,6.459,9.043v3.74L5.2,14.043h0a2.006,2.006,0,0,0-.592,1.419h0a1.9,1.9,0,0,0,1.9,1.894Z" fill="none" stroke="#7f7f7f" stroke-linecap="round" stroke-linejoin="round" stroke-width="1.5"/>
    <path id="Path_132" data-name="Path 132" d="M17.5,17.359h0" fill="none" stroke="#7f7f7f" stroke-linecap="round" stroke-linejoin="round" stroke-width="1.5"/>
    <path id="Path_133" data-name="Path 133" d="M10.521,20.5h2.957" fill="none" stroke="#7f7f7f" stroke-linecap="round" stroke-linejoin="round" stroke-width="1.5"/>
  </g>
  <path id="Path_134" data-name="Path 134" d="M0,0H24V24H0Z" fill="none"/>
</svg>
