<svg id="dashboard.5" xmlns="http://www.w3.org/2000/svg" width="24" height="24" viewBox="0 0 24 24">
  <path id="Path_123" data-name="Path 123" d="M24,24H0V0H24Z" fill="none"/>
  <path id="Path_124" data-name="Path 124" d="M12,3h0a9,9,0,0,1,9,9h0a9,9,0,0,1-9,9h0a9,9,0,0,1-9-9H3A9,9,0,0,1,12,3Z" fill="none" stroke="#7f7f7f" stroke-linecap="round" stroke-linejoin="round" stroke-width="1.5"/>
  <path id="Path_125" data-name="Path 125" d="M18,12H16.309a.5.5,0,0,0-.447.276L14.447,15.1a.5.5,0,0,1-.894,0L10.43,8.861a.5.5,0,0,0-.887-.014l-1.559,2.89a.5.5,0,0,1-.44.263H6" fill="none" stroke="#7f7f7f" stroke-linecap="round" stroke-linejoin="round" stroke-width="1.5"/>
</svg>
