<svg id="keys" xmlns="http://www.w3.org/2000/svg" width="24" height="24" viewBox="0 0 24 24">
  <path id="Path_153" data-name="Path 153" d="M24,24H0V0H24Z" fill="none"/>
  <path id="Path_154" data-name="Path 154" d="M11.863,8.523,8.908,11.478,7.137,9.7" fill="none" stroke="#7f7f7f" stroke-linecap="round" stroke-linejoin="round" stroke-width="1.5"/>
  <path id="Path_155" data-name="Path 155" d="M20,10V7a4,4,0,0,0-4-4H7A4,4,0,0,0,3,7v6a4,4,0,0,0,4,4h4" fill="none" stroke="#7f7f7f" stroke-linecap="round" stroke-linejoin="round" stroke-width="1.5"/>
  <path id="Path_156" data-name="Path 156" d="M14.56,14.509H21l-.7,3.522H15.265L14.258,13H13" fill="none" stroke="#7f7f7f" stroke-linecap="round" stroke-linejoin="round" stroke-width="1.5"/>
  <path id="Path_157" data-name="Path 157" d="M19.828,20.413a.05.05,0,1,1-.071,0,.05.05,0,0,1,.071,0" fill="none" stroke="#7f7f7f" stroke-linecap="round" stroke-linejoin="round" stroke-width="1.5"/>
  <path id="Path_158" data-name="Path 158" d="M15.8,20.413a.05.05,0,1,1-.071,0,.05.05,0,0,1,.071,0" fill="none" stroke="#7f7f7f" stroke-linecap="round" stroke-linejoin="round" stroke-width="1.5"/>
</svg>
