<svg id="Group_User.1" data-name="Group, User.1" xmlns="http://www.w3.org/2000/svg" width="24" height="24" viewBox="0 0 24 24">
  <g id="Group_538" data-name="Group 538">
    <path id="Path_107" data-name="Path 107" d="M20.792,9.524a2.023,2.023,0,1,1-2.861,0,2.023,2.023,0,0,1,2.861,0" fill="none" stroke="#7f7f7f" stroke-linecap="round" stroke-linejoin="round" stroke-width="1.5"/>
    <path id="Path_108" data-name="Path 108" d="M14.2,5.912a3.115,3.115,0,1,1-4.405,0,3.115,3.115,0,0,1,4.405,0" fill="none" stroke="#7f7f7f" stroke-linecap="round" stroke-linejoin="round" stroke-width="1.5"/>
    <path id="Path_109" data-name="Path 109" d="M6.068,9.524a2.023,2.023,0,1,1-2.861,0,2.023,2.023,0,0,1,2.861,0" fill="none" stroke="#7f7f7f" stroke-linecap="round" stroke-linejoin="round" stroke-width="1.5"/>
    <path id="Path_110" data-name="Path 110" d="M23,19V17.9a2.5,2.5,0,0,0-2.5-2.5h-.8" fill="none" stroke="#7f7f7f" stroke-linecap="round" stroke-linejoin="round" stroke-width="1.5"/>
    <path id="Path_111" data-name="Path 111" d="M1,19V17.9a2.5,2.5,0,0,1,2.5-2.5h.8" fill="none" stroke="#7f7f7f" stroke-linecap="round" stroke-linejoin="round" stroke-width="1.5"/>
    <path id="Path_112" data-name="Path 112" d="M17.339,19V17.4a3.5,3.5,0,0,0-3.5-3.5H10.16a3.5,3.5,0,0,0-3.5,3.5V19" fill="none" stroke="#7f7f7f" stroke-linecap="round" stroke-linejoin="round" stroke-width="1.5"/>
  </g>
  <path id="Path_113" data-name="Path 113" d="M0,0H24V24H0Z" fill="none"/>
</svg>
