<svg width="24" height="24" viewBox="0 0 24 24" fill="none" xmlns="http://www.w3.org/2000/svg">
<g clip-path="url(#clip0_277_103)">
<path d="M3 7H2" stroke="#7F7F7F" stroke-width="1.5" stroke-linecap="round" stroke-linejoin="round"/>
<path d="M4 4H2" stroke="#7F7F7F" stroke-width="1.5" stroke-linecap="round" stroke-linejoin="round"/>
<path d="M17.4381 16H6.85005C5.24205 16 4.08905 14.45 4.55105 12.91L6.71105 5.71C7.01605 4.695 7.95005 4 9.01005 4H19.5991C21.2071 4 22.3601 5.55 21.8981 7.09L19.7381 14.29C19.4331 15.305 18.4981 16 17.4381 16Z" stroke="#7F7F7F" stroke-width="1.5" stroke-linecap="round" stroke-linejoin="round"/>
<path d="M4.74023 14.7201L11.7002 10.0901" stroke="#7F7F7F" stroke-width="1.5" stroke-linecap="round" stroke-linejoin="round"/>
<path d="M14.21 10.05L19.28 15.12" stroke="#7F7F7F" stroke-width="1.5" stroke-linecap="round" stroke-linejoin="round"/>
<path d="M17 20H3" stroke="#7F7F7F" stroke-width="1.5" stroke-linecap="round" stroke-linejoin="round"/>
<path d="M7.19824 4.83594L12.0012 10.4399C12.3252 10.8179 12.8772 10.8999 13.2972 10.6329L21.7092 5.28494" stroke="#7F7F7F" stroke-width="1.5" stroke-linecap="round" stroke-linejoin="round"/>
</g>
<defs>
<clipPath id="clip0_277_103">
<rect width="24" height="24" fill="white"/>
</clipPath>
</defs>
</svg>
