<svg id="grid-layout.17" xmlns="http://www.w3.org/2000/svg" width="24" height="24" viewBox="0 0 24 24">
  <path id="Path_126" data-name="Path 126" d="M0,0H24V24H0Z" fill="none"/>
  <path id="Path_127" data-name="Path 127" d="M7.75,9.75H5a2,2,0,0,1-2-2V5A2,2,0,0,1,5,3H7.75a2,2,0,0,1,2,2V7.75A2,2,0,0,1,7.75,9.75Z" fill="none" stroke="#7f7f7f" stroke-linecap="round" stroke-linejoin="round" stroke-width="1.5" fill-rule="evenodd"/>
  <path id="Path_128" data-name="Path 128" d="M19,9.75H16.25a2,2,0,0,1-2-2V5a2,2,0,0,1,2-2H19a2,2,0,0,1,2,2V7.75A2,2,0,0,1,19,9.75Z" fill="none" stroke="#7f7f7f" stroke-linecap="round" stroke-linejoin="round" stroke-width="1.5" fill-rule="evenodd"/>
  <path id="Path_129" data-name="Path 129" d="M7.75,21H5a2,2,0,0,1-2-2V16.25a2,2,0,0,1,2-2H7.75a2,2,0,0,1,2,2V19A2,2,0,0,1,7.75,21Z" fill="none" stroke="#7f7f7f" stroke-linecap="round" stroke-linejoin="round" stroke-width="1.5" fill-rule="evenodd"/>
  <path id="Path_130" data-name="Path 130" d="M19,21H16.25a2,2,0,0,1-2-2V16.25a2,2,0,0,1,2-2H19a2,2,0,0,1,2,2V19A2,2,0,0,1,19,21Z" fill="none" stroke="#7f7f7f" stroke-linecap="round" stroke-linejoin="round" stroke-width="1.5" fill-rule="evenodd"/>
</svg>
